<svg xmlns="http://www.w3.org/2000/svg" viewBox="0 0 84.3 18.46"><defs><style>.cls-1{fill:#ff5e00;}.cls-2,.cls-3,.cls-4{fill:none;stroke:#ff5e00;}.cls-2,.cls-4{stroke-miterlimit:10;}.cls-3{stroke-linecap:round;stroke-linejoin:round;}.cls-4{stroke-width:0.75px;}.cls-5{fill:#f50;}</style></defs><g id="Layer_2" data-name="Layer 2"><g id="Layer_1-2" data-name="Layer 1"><path d="M16.91,1.51V17.9c0,.86-.39,1.55-.87,1.55h-.91V2.83c0-.73.3-1.32.66-1.32Z" transform="translate(0 -1.13)"/><rect x="12.82" y="16.43" width="2.31" height="1.9"/><rect x="3.84" y="16.43" width="2.11" height="1.9"/><rect x="16.91" y="0.38" width="2.31" height="1.9"/><path d="M21.06,1.52H26.3v1H21.06Zm2.1.6h1V8.94h-1Z" transform="translate(0 -1.13)"/><path d="M28.36,8.94h-1V1.52h1Z" transform="translate(0 -1.13)"/><path d="M30.2,1.52h.94l3.63,5.74-.12.13V1.52h1V8.94h-1L31.11,3.28l.12-.13V8.94h-1Z" transform="translate(0 -1.13)"/><path d="M37.52,1.52h1V8.94h-1Zm.82,4.16,3.28-4.16H42.9L38.19,7.25ZM39.57,5l.83-.76,2.81,4.72H41.93Z" transform="translate(0 -1.13)"/><path d="M44.33,1.52h1V8.94h-1Zm.51,0H49.1v1H44.84Zm0,3.24h3.7v1h-3.7Zm0,3.19H49.1v1H44.84Z" transform="translate(0 -1.13)"/><path d="M50.58,1.51h1V8.94h-1ZM51,4.81h2.53a1,1,0,0,0,.53-.14.94.94,0,0,0,.35-.41,1.43,1.43,0,0,0,.13-.6,1.48,1.48,0,0,0-.13-.61.91.91,0,0,0-.35-.4.94.94,0,0,0-.53-.15H51v-1h2.49a2.28,2.28,0,0,1,1.13.27,1.83,1.83,0,0,1,.76.75,2.41,2.41,0,0,1,.26,1.13,2.26,2.26,0,0,1-.27,1.12,1.89,1.89,0,0,1-.75.76,2.41,2.41,0,0,1-1.13.26H51Zm2,.76,1-.23L56,8.94H54.76Z" transform="translate(0 -1.13)"/><path class="cls-1" d="M57.4,1.52h1V8.94h-1Zm.65,3.27h4.12v1H58.05Zm3.57-3.27h1V8.94h-1Z" transform="translate(0 -1.13)"/><path class="cls-1" d="M66.42,1.52h.89L70,8.94H68.92L66.86,3l-2.06,6H63.68Zm-1.48,4.8h3.91v1H64.94Z" transform="translate(0 -1.13)"/><path class="cls-1" d="M69.94,1.52h5.24v1H69.94Zm2.1.6h1V8.94H72Z" transform="translate(0 -1.13)"/><path d="M21.18,12.09h1v7.42h-1Zm.51,0h4.16v1H21.69Zm0,3.31h3.6v1h-3.6Z" transform="translate(0 -1.13)"/><path d="M28.12,19.25a2.36,2.36,0,0,1-.92-1,3,3,0,0,1-.33-1.44v-2.1a3,3,0,0,1,.33-1.44,2.36,2.36,0,0,1,.92-1,2.91,2.91,0,0,1,2.73,0,2.36,2.36,0,0,1,.92,1,3,3,0,0,1,.32,1.44v2.1a3,3,0,0,1-.32,1.44,2.36,2.36,0,0,1-.92,1,2.91,2.91,0,0,1-2.73,0Zm2.17-.89a1.34,1.34,0,0,0,.54-.59,1.9,1.9,0,0,0,.2-.88V14.71a1.93,1.93,0,0,0-.2-.88,1.27,1.27,0,0,0-.54-.58,1.65,1.65,0,0,0-1.61,0,1.34,1.34,0,0,0-.55.58,2.07,2.07,0,0,0-.19.88v2.18a2,2,0,0,0,.19.88,1.42,1.42,0,0,0,.55.59,1.72,1.72,0,0,0,1.61,0Z" transform="translate(0 -1.13)"/><path d="M34.67,19.26a2.08,2.08,0,0,1-.89-.94,3.25,3.25,0,0,1-.31-1.49V12.09h1v4.77a1.82,1.82,0,0,0,.41,1.26,1.75,1.75,0,0,0,2.32,0,1.82,1.82,0,0,0,.41-1.26V12.09h1v4.74a3.25,3.25,0,0,1-.31,1.49,2.08,2.08,0,0,1-.89.94,3.18,3.18,0,0,1-2.82,0Z" transform="translate(0 -1.13)"/><path d="M40.33,12.09h.94l3.63,5.74-.12.13V12.09h1v7.42h-1l-3.62-5.66.13-.13v5.79h-1Z" transform="translate(0 -1.13)"/><path d="M47.65,12.09h1v7.42h-1Zm.7,6.43H50a1.83,1.83,0,0,0,1.28-.42,1.6,1.6,0,0,0,.45-1.21V14.71a1.6,1.6,0,0,0-.45-1.21A1.83,1.83,0,0,0,50,13.08H48.35v-1H50a3.39,3.39,0,0,1,1.53.31,2.17,2.17,0,0,1,1,.91,3,3,0,0,1,.34,1.44v2.1a3,3,0,0,1-.34,1.44,2.17,2.17,0,0,1-1,.91,3.45,3.45,0,0,1-1.53.31H48.35Z" transform="translate(0 -1.13)"/><path d="M56.23,12.09h.89l2.73,7.42H58.73l-2.06-6-2.06,6H53.49Zm-1.48,4.8h3.91v1H54.75Z" transform="translate(0 -1.13)"/><path d="M59.75,12.09H65v1H59.75Zm2.1.61h1v6.81h-1Z" transform="translate(0 -1.13)"/><path d="M67.05,19.51H66V12.09h1Z" transform="translate(0 -1.13)"/><path d="M70,19.25a2.36,2.36,0,0,1-.92-1,3,3,0,0,1-.32-1.44v-2.1a3,3,0,0,1,.32-1.44,2.36,2.36,0,0,1,.92-1,2.91,2.91,0,0,1,2.73,0,2.36,2.36,0,0,1,.92,1A3,3,0,0,1,74,14.75v2.1a3,3,0,0,1-.33,1.44,2.36,2.36,0,0,1-.92,1,2.91,2.91,0,0,1-2.73,0Zm2.18-.89a1.47,1.47,0,0,0,.54-.59,2,2,0,0,0,.19-.88V14.71a2.07,2.07,0,0,0-.19-.88,1.38,1.38,0,0,0-.54-.58,1.58,1.58,0,0,0-.81-.21,1.53,1.53,0,0,0-.81.21,1.27,1.27,0,0,0-.54.58,1.93,1.93,0,0,0-.2.88v2.18a1.9,1.9,0,0,0,.2.88,1.34,1.34,0,0,0,.54.59,1.62,1.62,0,0,0,.81.2A1.68,1.68,0,0,0,72.16,18.36Z" transform="translate(0 -1.13)"/><path d="M75.54,12.09h.94l3.63,5.74L80,18V12.09h1v7.42h-1l-3.62-5.66.12-.13v5.79h-1Z" transform="translate(0 -1.13)"/><polyline class="cls-2" points="83.39 0.73 79.66 5.55 78.15 4.59 74.53 9.96"/><polyline class="cls-3" points="83.61 2.66 83.8 0.5 81.68 0.86"/><path class="cls-1" d="M10.81,3.69s0,0-.07.07a2.49,2.49,0,0,0-.22.27,1.35,1.35,0,0,1-.2.27,2,2,0,0,1-.84.23V4.29H9.7a.63.63,0,0,0,.43-.16,2.31,2.31,0,0,0,.18-.23.76.76,0,0,1,.33-.34.17.17,0,0,1,.14,0A.13.13,0,0,1,10.81,3.69Z" transform="translate(0 -1.13)"/><path class="cls-1" d="M10.81,3.69s0,0-.07.07a2.49,2.49,0,0,0-.22.27,1.35,1.35,0,0,1-.2.27,2,2,0,0,1-.84.23V4.29H9.7a.63.63,0,0,0,.43-.16,2.31,2.31,0,0,0,.18-.23.76.76,0,0,1,.33-.34.17.17,0,0,1,.14,0A.13.13,0,0,1,10.81,3.69Z" transform="translate(0 -1.13)"/><path class="cls-1" d="M12.24,4.15a1.05,1.05,0,0,0-.37-.78l-.18-.17V3a.76.76,0,0,0-.1-.39,1,1,0,0,0-.75-.4c-.12,0-.16,0-.2-.13a.9.9,0,0,0-.71-.46,5.25,5.25,0,0,0-.89,0,2.55,2.55,0,0,0-.86.25.23.23,0,0,0,0,.05.14.14,0,0,0,.08.13s0,0,.22,0A2.83,2.83,0,0,1,9,1.88h.63l.1,0h.09a.91.91,0,0,1,.25.07c.11,0,.3.18.3.29s0,.07-.14.18a.77.77,0,0,0-.22.37.12.12,0,0,0,.12.11c.07,0,.09,0,.17-.14a.48.48,0,0,1,.4-.29.67.67,0,0,1,.54.19.46.46,0,0,1,.14.39v0c0,.25,0,.25.09.32A.84.84,0,0,1,12,4.2a.7.7,0,0,1-.38.56c-.12.07-.12.08-.13.13s0,.05.07.13a.58.58,0,0,1,.15.41c0,.18-.09.49-.64.56a.74.74,0,0,1-.44-.1.72.72,0,0,1-.16-.26.91.91,0,0,0-.18-.27c-.1-.09-.1-.09-.16-.09s-.14,0-.14.11,0,0,.07.1a1.23,1.23,0,0,1,.18.28.74.74,0,0,0,.64.46c.12,0,.18,0,.22.08s0,.11,0,.2a.59.59,0,0,1-.3.32.49.49,0,0,1-.34,0l-.15-.1c-.12-.1-.18-.07-.23,0s-.06.08,0,.16a.78.78,0,0,0,.33.21s.09,0,.11.07a.1.1,0,0,1,0,.09,3.83,3.83,0,0,0-.15.49l0,.2H8.51l0-.2A3.67,3.67,0,0,0,8,6.61c-.07-.09-.29-.42-.5-.69a3.15,3.15,0,0,1-.59-1.06A2.26,2.26,0,0,1,7,3.35l.07-.16,0,0a.13.13,0,0,0-.15-.06c-.06,0-.12.11-.18.28a2.42,2.42,0,0,0,.06,1.9,5.08,5.08,0,0,0,.64,1,3.83,3.83,0,0,1,.79,1.53c0,.11,0,.15-.09.21S8,8.07,8,8.48s0,.46.1.55l.1.09v.43c0,.33,0,.38,0,.44a.57.57,0,0,0,.27.26l.1,0h1.55l.11,0a.51.51,0,0,0,.26-.26c0-.06,0-.11.05-.44V9.12L10.71,9l.08-.12a4.16,4.16,0,0,0,0-.79A.38.38,0,0,0,10.69,8c-.1-.09-.13-.13-.11-.24a2.85,2.85,0,0,1,.19-.56A.32.32,0,0,1,11,7a.78.78,0,0,0,.4-.67c0-.13,0-.16.14-.21a.8.8,0,0,0,.42-.48.84.84,0,0,0,0-.52l-.09-.17L12,4.79A.88.88,0,0,0,12.24,4.15ZM10.32,9.52c0,.32,0,.44-.15.51a5,5,0,0,1-.77,0,5,5,0,0,1-.77,0c-.15-.07-.15-.19-.15-.51v-.4h1.84Zm.22-.64H8.26V8.14h2.28Z" transform="translate(0 -1.13)"/><path class="cls-1" d="M7.3,2.32a.19.19,0,0,0-.07.18.25.25,0,0,0,.43.18.2.2,0,0,0,.07-.18.23.23,0,0,0-.25-.25A.19.19,0,0,0,7.3,2.32Z" transform="translate(0 -1.13)"/><line class="cls-4" x1="9.16" y1="0.58" x2="9.16" y2="6.59"/><rect class="cls-5" x="8.53" y="10.22" width="1.78" height="8.13"/><path d="M3.84,1.51V19.45H3a1,1,0,0,1-1-.93v-17Z" transform="translate(0 -1.13)"/><rect class="cls-5" x="12.82" y="9.16" width="62.1" height="1.07"/><rect y="4.25" width="5.88" height="1.07"/></g></g></svg>